<svg aria-hidden="true" style="position: absolute; width: 0; height: 0; overflow: hidden;" version="1.1" xmlns="http://www.w3.org/2000/svg" xmlns:xlink="http://www.w3.org/1999/xlink">
<defs>
<symbol id="icon-basket" viewBox="0 0 32 32">
<path d="M22.874 27h-9.687c-4.135 0-7.5-3.364-7.5-7.5v-7.688c0-3.844-1.916-7.403-5.126-9.519-0.576-0.38-0.736-1.155-0.355-1.732s1.155-0.736 1.732-0.355c1.832 1.208 3.318 2.801 4.381 4.636 0.23 0.257 2.082 2.22 5.118 2.22h14.394c3.927-0.073 7.001 3.868 5.974 7.658l-1.657 6.604c-0.838 3.341-3.83 5.675-7.275 5.675zM7.872 8.856c0.208 0.96 0.315 1.95 0.315 2.956v7.688c0 2.757 2.243 5 5 5h9.687c2.297 0 4.291-1.556 4.85-3.783l1.657-6.604c0.61-2.252-1.217-4.593-3.549-4.55h-14.394c-1.373 0-2.568-0.296-3.565-0.706zM12.563 30.437c0-0.863-0.7-1.562-1.563-1.562-2.073 0.083-2.071 3.043 0 3.125 0.863 0 1.563-0.7 1.563-1.563zM25 30.437c0-0.863-0.7-1.562-1.563-1.562-2.073 0.083-2.071 3.043 0 3.125 0.863 0 1.563-0.7 1.563-1.563zM27.082 13.313c0-0.69-0.56-1.25-1.25-1.25h-13.894c-1.658 0.066-1.657 2.435 0 2.5h13.894c0.69 0 1.25-0.56 1.25-1.25z"></path>
</symbol>
<symbol id="icon-calling" viewBox="0 0 32 32">
<path fill="none" stroke="#46a358" style="stroke: var(--color1, #46a358)" stroke-linejoin="round" stroke-linecap="round" stroke-miterlimit="4" stroke-width="2.4" d="M19.137 3.667c4.935 0.548 8.833 4.441 9.388 9.376"></path>
<path fill="none" stroke="#46a358" style="stroke: var(--color1, #46a358)" stroke-linejoin="round" stroke-linecap="round" stroke-miterlimit="4" stroke-width="2.4" d="M19.137 8.391c2.361 0.459 4.207 2.305 4.667 4.667"></path>
<path fill="none" stroke="#46a358" style="stroke: var(--color1, #46a358)" stroke-linejoin="round" stroke-linecap="round" stroke-miterlimit="4" stroke-width="2.4" d="M10.267 21.732c-9.197-9.198-7.889-13.41-6.92-14.768 0.125-0.219 3.195-4.815 6.485-2.119 8.168 6.727-2.173 5.776 4.686 12.636 6.86 6.859 5.908-3.482 12.635 4.685 2.696 3.292-1.9 6.362-2.117 6.485-1.357 0.971-5.571 2.279-14.77-6.92z"></path>
</symbol>
<symbol id="icon-facebook" viewBox="0 0 32 32">
<path fill="#46a358" style="fill: var(--color1, #46a358)" opacity="0.6" d="M12 10.667h-4v5.333h4v16h6.667v-16h4.8l0.533-5.333h-5.333v-2.267c0-1.2 0.267-1.733 1.467-1.733h3.867v-6.667h-5.067c-4.8 0-6.933 2.133-6.933 6.133v4.533z"></path>
</symbol>
<symbol id="icon-heart" viewBox="0 0 32 32">
<path d="M16 30.22c-0.456 0-0.895-0.165-1.237-0.465-1.293-1.13-2.539-2.193-3.639-3.13l-0.006-0.005c-3.224-2.747-6.008-5.12-7.945-7.457-2.165-2.613-3.174-5.090-3.174-7.796 0-2.629 0.902-5.055 2.539-6.831 1.657-1.797 3.929-2.786 6.401-2.786 1.847 0 3.539 0.584 5.028 1.736 0.751 0.581 1.433 1.293 2.033 2.123 0.6-0.83 1.281-1.541 2.033-2.123 1.489-1.152 3.181-1.736 5.028-1.736 2.471 0 4.744 0.99 6.401 2.786 1.637 1.776 2.538 4.201 2.538 6.831 0 2.706-1.008 5.184-3.174 7.796-1.937 2.337-4.721 4.71-7.944 7.457-1.102 0.939-2.35 2.002-3.646 3.136-0.342 0.299-0.781 0.464-1.237 0.464zM8.939 3.624c-1.942 0-3.725 0.775-5.023 2.182-1.317 1.428-2.042 3.403-2.042 5.56 0 2.276 0.846 4.312 2.743 6.6 1.833 2.212 4.56 4.536 7.717 7.227l0.006 0.005c1.104 0.941 2.355 2.007 3.657 3.146 1.31-1.141 2.563-2.209 3.669-3.151 3.157-2.691 5.884-5.014 7.717-7.226 1.896-2.289 2.742-4.324 2.742-6.6 0-2.157-0.725-4.132-2.042-5.56-1.297-1.407-3.081-2.182-5.023-2.182-1.422 0-2.728 0.452-3.881 1.344-1.028 0.795-1.744 1.8-2.163 2.503-0.216 0.362-0.596 0.577-1.016 0.577s-0.801-0.216-1.016-0.577c-0.419-0.703-1.135-1.708-2.163-2.503-1.153-0.892-2.459-1.344-3.881-1.344z"></path>
</symbol>
<symbol id="icon-instagram" viewBox="0 0 32 32">
<path fill="#46a358" style="fill: var(--color1, #46a358)" opacity="0.6" d="M16 2.933c4.267 0 4.8 0 6.533 0.133 4.4 0.133 6.4 2.267 6.533 6.533 0.133 1.733 0.133 2.133 0.133 6.4s0 4.8-0.133 6.4c-0.133 4.267-2.267 6.4-6.533 6.533-1.733 0.133-2.133 0.133-6.533 0.133-4.267 0-4.8 0-6.4-0.133-4.4-0.133-6.4-2.267-6.533-6.533-0.133-1.733-0.133-2.133-0.133-6.4s0-4.8 0.133-6.4c0.133-4.267 2.267-6.4 6.533-6.533 1.6-0.133 2.133-0.133 6.4-0.133zM16 0c-4.4 0-4.933 0-6.533 0.133-5.867 0.267-9.067 3.467-9.333 9.333-0.133 1.6-0.133 2.133-0.133 6.533s0 4.933 0.133 6.533c0.267 5.867 3.467 9.067 9.333 9.333 1.6 0.133 2.133 0.133 6.533 0.133s4.933 0 6.533-0.133c5.867-0.267 9.067-3.467 9.333-9.333 0.133-1.6 0.133-2.133 0.133-6.533s0-4.933-0.133-6.533c-0.267-5.867-3.467-9.067-9.333-9.333-1.6-0.133-2.133-0.133-6.533-0.133zM16 7.733c-4.533 0-8.267 3.733-8.267 8.267s3.733 8.267 8.267 8.267c4.533 0 8.267-3.733 8.267-8.267s-3.733-8.267-8.267-8.267zM16 21.333c-2.933 0-5.333-2.4-5.333-5.333s2.4-5.333 5.333-5.333c2.933 0 5.333 2.4 5.333 5.333s-2.4 5.333-5.333 5.333zM24.533 5.6c-1.067 0-1.867 0.8-1.867 1.867s0.8 1.867 1.867 1.867c1.067 0 1.867-0.8 1.867-1.867s-0.8-1.867-1.867-1.867z"></path>
</symbol>
<symbol id="icon-linkedin" viewBox="0 0 32 32">
<path fill="#46a358" style="fill: var(--color1, #46a358)" opacity="0.6" d="M6.667 3.333c0 1.867-1.467 3.333-3.333 3.333s-3.333-1.467-3.333-3.333c0-1.867 1.467-3.333 3.333-3.333s3.333 1.467 3.333 3.333zM6.667 9.333h-6.667v21.333h6.667v-21.333zM17.333 9.333h-6.667v21.333h6.667v-11.2c0-6.267 8-6.8 8 0v11.2h6.667v-13.467c0-10.533-11.867-10.133-14.667-4.933v-2.933z"></path>
</symbol>
<symbol id="icon-location" viewBox="0 0 32 32">
<path fill="none" stroke="#46a358" style="stroke: var(--color1, #46a358)" stroke-linejoin="round" stroke-linecap="round" stroke-miterlimit="4" stroke-width="2.8235" d="M19.938 13.507c0-2.167-1.756-3.922-3.922-3.922-2.165 0-3.921 1.756-3.921 3.922 0 2.165 1.756 3.921 3.921 3.921 2.167 0 3.922-1.756 3.922-3.921z"></path>
<path fill="none" stroke="#46a358" style="stroke: var(--color1, #46a358)" stroke-linejoin="round" stroke-linecap="round" stroke-miterlimit="4" stroke-width="2.8235" d="M15.999 29.647c-4.546 0-11.764-7.908-11.764-16.316 0-6.582 5.266-11.919 11.764-11.919s11.765 5.337 11.765 11.919c0 8.408-7.218 16.316-11.765 16.316z"></path>
</symbol>
<symbol id="icon-logout" viewBox="0 0 32 32">
<path fill="none" stroke="#fff" style="stroke: var(--color2, #fff)" stroke-linejoin="round" stroke-linecap="round" stroke-miterlimit="4" stroke-width="2.4" d="M29.055 16.16h-16.055"></path>
<path fill="none" stroke="#fff" style="stroke: var(--color2, #fff)" stroke-linejoin="round" stroke-linecap="round" stroke-miterlimit="4" stroke-width="2.4" d="M25.152 12.273l3.904 3.888-3.904 3.888"></path>
<path fill="none" stroke="#fff" style="stroke: var(--color2, #fff)" stroke-linejoin="round" stroke-linecap="round" stroke-miterlimit="4" stroke-width="2.4" d="M21.813 10.173c-0.44-4.773-2.227-6.507-9.333-6.507-9.468 0-9.468 3.080-9.468 12.333s0 12.333 9.468 12.333c7.107 0 8.893-1.733 9.333-6.507"></path>
</symbol>
<symbol id="icon-message" viewBox="0 0 32 32">
<path fill="none" stroke="#46a358" style="stroke: var(--color1, #46a358)" stroke-linejoin="round" stroke-linecap="round" stroke-miterlimit="4" stroke-width="2.4" d="M23.394 12.025c0 0-4.28 5.137-7.41 5.137-3.129 0-7.457-5.137-7.457-5.137"></path>
<path fill="none" stroke="#46a358" style="stroke: var(--color1, #46a358)" stroke-linejoin="round" stroke-linecap="round" stroke-miterlimit="4" stroke-width="2.4" d="M3.27 15.958c0-9.117 3.175-12.156 12.698-12.156s12.698 3.038 12.698 12.156c0 9.116-3.175 12.156-12.698 12.156s-12.698-3.040-12.698-12.156z"></path>
</symbol>
<symbol id="icon-search" viewBox="0 0 32 32">
<path d="M23.316 25.605c-6.395 5.094-15.335 3.684-20.071-2.158-4.57-5.64-4.285-13.777 0.674-18.927 5.123-5.321 13.178-6.031 19.016-1.666 2.092 1.563 3.654 3.552 4.671 5.96 1.023 2.422 1.334 4.941 0.979 7.539-0.354 2.586-1.386 4.891-3.066 7.042 0.136 0.089 0.281 0.153 0.385 0.257 1.847 1.838 3.687 3.683 5.534 5.521 0.438 0.436 0.656 0.943 0.526 1.555-0.258 1.217-1.707 1.686-2.636 0.851-0.436-0.391-0.836-0.821-1.25-1.235-1.517-1.516-3.033-3.032-4.55-4.548-0.063-0.060-0.129-0.116-0.211-0.192zM25.537 14.379c0.016-6.176-4.972-11.169-11.165-11.178-6.176-0.009-11.16 4.944-11.187 11.116-0.027 6.191 4.951 11.198 11.163 11.227 6.151 0.029 11.173-4.983 11.189-11.165z"></path>
</symbol>
<symbol id="icon-twitter" viewBox="0 0 32 32">
<path fill="#46a358" style="fill: var(--color1, #46a358)" opacity="0.6" d="M10.064 29.007c12.076 0 18.68-10.005 18.68-18.68 0-0.284-0.006-0.567-0.019-0.849 1.282-0.927 2.396-2.083 3.275-3.399-1.176 0.523-2.442 0.875-3.77 1.033 1.355-0.813 2.396-2.099 2.887-3.632-1.269 0.752-2.674 1.299-4.169 1.594-1.199-1.276-2.905-2.074-4.793-2.074-3.626 0-6.567 2.94-6.567 6.565 0 0.515 0.058 1.016 0.17 1.497-5.456-0.274-10.294-2.887-13.532-6.859-0.565 0.97-0.889 2.097-0.889 3.3 0 2.278 1.159 4.288 2.922 5.465-1.077-0.033-2.089-0.329-2.974-0.821-0.001 0.027-0.001 0.055-0.001 0.084 0 3.18 2.263 5.835 5.267 6.436-0.551 0.15-1.132 0.231-1.731 0.231-0.423 0-0.834-0.042-1.234-0.118 0.836 2.608 3.26 4.506 6.133 4.56-2.247 1.761-5.078 2.81-8.154 2.81-0.53 0-1.052-0.030-1.566-0.091 2.905 1.862 6.355 2.949 10.064 2.949z"></path>
</symbol>
<symbol id="icon-union" viewBox="0 0 32 32">
<path fill="#46a358" style="fill: var(--color1, #46a358)" opacity="0.6" d="M25.542 11.671l0.005 0.001c0 0-0.001-0-0.002-0.001s-0.002-0-0.002-0.001zM7.283 11.548c4.367-0.271 12.503-0.271 16.871 0l0.001 0.013c0.105 1.066 0.148 2.488 0.148 4.471 0 1.959-0.041 3.381-0.145 4.456-4.46 0.177-12.417 0.177-16.878 0-0.104-1.064-0.146-2.482-0.146-4.456 0-1.984 0.042-3.405 0.148-4.471l0.001-0.013zM25.671 20.398c0 0-0.003 0.001-0.009 0.002l0.009-0.002zM5.891 20.392l0.005 0.001c-0.003-0.001-0.005-0.001-0.005-0.001zM0 16.032c0 8.121 0.655 11.134 5.763 11.527 4.716 0.262 15.195 0.262 19.91 0 5.109-0.262 5.764-3.406 5.764-11.527s-0.655-11.134-5.764-11.527c-4.716-0.393-15.195-0.393-19.91 0-5.109 0.393-5.763 3.406-5.763 11.527zM5.891 11.673c-0-0 0.002-0 0.005-0.001l-0.005 0.001zM16.475 18.929c-2.153 1.077-4.686-0.489-4.686-2.896s2.533-3.973 4.686-2.896c2.387 1.193 2.387 4.599 0 5.793z"></path>
</symbol>
<symbol id="icon-arrow-left" viewBox="0 0 19 32">
<path fill="#fff" style="fill: var(--color2, #fff)" d="M18.638 28.973c0.746 0.69 0.749 1.812 0.006 2.505-0.676 0.63-1.735 0.689-2.483 0.176l-0.214-0.171-15.385-14.227c-0.681-0.629-0.743-1.617-0.186-2.311l0.186-0.199 15.385-14.23c0.746-0.69 1.954-0.688 2.697 0.005 0.676 0.63 0.735 1.614 0.18 2.307l-0.185 0.198-14.028 12.975 14.027 12.972z"></path>
</symbol>
<symbol id="icon-arrow-right" viewBox="0 0 19 32">
<path d="M0.562 3.027c-0.746-0.69-0.749-1.812-0.006-2.505 0.676-0.63 1.735-0.69 2.483-0.176l0.214 0.171 15.385 14.227c0.681 0.629 0.743 1.617 0.186 2.311l-0.186 0.199-15.385 14.23c-0.746 0.69-1.954 0.688-2.697-0.005-0.676-0.63-0.735-1.614-0.18-2.307l0.185-0.198 14.028-12.975-14.027-12.972z"></path>
</symbol>
</defs>
</svg>
